<?xml version="1.0" encoding="UTF-8"?>
<svg xmlns="http://www.w3.org/2000/svg" viewBox="0 0 16 16">
    <path class="t42-standard-button-image" d="M9.4 12.3l-2.5 2.5c-1.6 1.6-4.2 1.6-5.7 0s-1.6-4.2 0-5.7c0 0 2.5-2.5 2.6-2.6C4 6.3 4.4 6.4 4.4 6.7c0 .1 0 .3 0 .4c0 .1 0 .2-.1.3C3.8 8 2 9.9 2 9.9c-1.1 1.1-1.1 3 0 4.2c1.2 1.1 3 1.1 4.2 0l2.5-2.5 0 0c1.1-1.1 1.1-3 0-4.1C8.4 7.1 8.1 6.9 7.8 6.8C7.6 6.7 7.5 6.6 7.5 6.4c0-.2 0-.3.1-.5c.1-.2.3-.3.5-.2C8.6 5.9 9 6.2 9.4 6.6C11 8.2 11 10.8 9.4 12.3L9.4 12.3zM6.6 9.4c.4.4.8.7 1.3.9c.2.1.4 0 .5-.2c0-.2.1-.3.1-.5c0-.2-.1-.3-.2-.4C7.9 9.1 7.6 8.9 7.4 8.6c-1.1-1.1-1.1-3 0-4.1l0 0L9.9 2c1.2-1.1 3-1.1 4.2 0c1.1 1.1 1.1 3 0 4.2c0 0-1.8 1.8-2.4 2.4c-.1.1-.1.2-.1.3c0 .1 0 .3 0 .4c0 .3.4.5.6.3c0 0 2.6-2.6 2.6-2.6c1.6-1.6 1.6-4.2 0-5.7c-1.6-1.6-4.2-1.6-5.7 0L6.6 3.7C5 5.2 5 7.8 6.6 9.4L6.6 9.4z"/>
</svg>
